G04 DipTrace 3.1.0.1*
G04 09342-02_pranvokua9_0_1.gbs*
%MOMM*%
G04 #@! TF.FileFunction,Soldermask,Bot*
G04 #@! TF.Part,Single*
%ADD36C,1.704*%
%ADD38R,1.704X1.704*%
%ADD40C,2.104*%
%ADD42R,2.104X2.104*%
%ADD44C,1.904*%
%ADD46R,1.904X1.904*%
%ADD48C,1.954*%
%ADD50R,1.954X1.954*%
%ADD52R,1.804X1.804*%
%ADD54C,1.804*%
%FSLAX35Y35*%
G04*
G71*
G90*
G75*
G01*
G04 BotMask*
%LPD*%
D54*
X2683387Y3540520D3*
D52*
X2429387D3*
X2889727Y5048500D3*
D54*
Y5302500D3*
D50*
X1349097Y4540760D3*
D48*
Y4286760D3*
Y4032760D3*
Y3778760D3*
Y3524760D3*
Y3270760D3*
Y3016760D3*
Y2762760D3*
Y2508760D3*
Y2254760D3*
X1603097D3*
Y2508760D3*
Y2762760D3*
Y3016760D3*
Y3270760D3*
Y3524760D3*
Y3778760D3*
Y4032760D3*
Y4286760D3*
Y4540760D3*
D50*
X5658207Y4541393D3*
D48*
Y4287393D3*
Y4033393D3*
Y3779393D3*
Y3525393D3*
Y3271393D3*
Y3017393D3*
Y2763393D3*
Y2509393D3*
Y2255393D3*
X5912207D3*
Y2509393D3*
Y2763393D3*
Y3017393D3*
Y3271393D3*
Y3525393D3*
Y3779393D3*
Y4033393D3*
Y4287393D3*
Y4541393D3*
D46*
X2048440Y5985027D3*
D44*
X2302440D3*
D46*
X5397220Y6160007D3*
D44*
X5651220D3*
D46*
X4397097Y6112383D3*
D44*
X4651097D3*
D50*
X2047597Y8684133D3*
D48*
X2301597D3*
X2555597D3*
X2809597D3*
X3063597D3*
X3317597D3*
X3571597D3*
X3825597D3*
X4079597D3*
X4333597D3*
X4587597D3*
X4841597D3*
X5095597D3*
Y8938133D3*
X4841597D3*
X4587597D3*
X4333597D3*
X4079597D3*
X3825597D3*
X3571597D3*
X3317597D3*
X3063597D3*
X2809597D3*
X2555597D3*
X2301597D3*
X2047597D3*
D46*
X1318267Y8223167D3*
D44*
X1572267D3*
X1826267D3*
D46*
X4397693D3*
D44*
X4651693D3*
D42*
X2286540Y7524740D3*
D40*
Y7270740D3*
Y7016740D3*
D38*
X3333470Y4286760D3*
D36*
Y4032760D3*
Y3778760D3*
Y3524760D3*
Y3270760D3*
Y3016760D3*
Y2762760D3*
Y2508760D3*
X4095470D3*
Y2762760D3*
Y3016760D3*
Y3270760D3*
Y3524760D3*
Y3778760D3*
Y4032760D3*
Y4286760D3*
D42*
X3826253Y7508867D3*
D40*
Y7254867D3*
Y7000867D3*
M02*
