M48
METRIC,0000.00
T01C0.486
T02C0.9
T03C1.0
T04C1.1
T05C1.14
%
T01
X+002953Y+002763
X+002715Y+002763
X+004492Y+003731
X+004524Y+004668
X+004826Y+004652
X+005000Y+004874
T02
X+002890Y+005048
X+002890Y+005303
X+003333Y+004287
X+003333Y+004033
X+003333Y+003779
X+003333Y+003525
X+003333Y+003271
X+003333Y+003017
X+003333Y+002763
X+003333Y+002509
X+004095Y+002509
X+004095Y+002763
X+004095Y+003017
X+004095Y+003271
X+004095Y+003525
X+004095Y+003779
X+004095Y+004033
X+004095Y+004287
T03
X+002683Y+003541
X+002429Y+003541
T04
X+002048Y+005985
X+002302Y+005985
X+002287Y+007017
X+002287Y+007271
X+002287Y+007525
X+001826Y+008223
X+001572Y+008223
X+001318Y+008223
X+003826Y+007509
X+003826Y+007255
X+003826Y+007001
X+004397Y+006112
X+004651Y+006112
X+005397Y+006160
X+005651Y+006160
X+004652Y+008223
X+004398Y+008223
T05
X+001349Y+004541
X+001349Y+004287
X+001349Y+004033
X+001603Y+004033
X+001603Y+004287
X+001603Y+004541
X+001603Y+003779
X+001603Y+003525
X+001603Y+003271
X+001603Y+003017
X+001349Y+003017
X+001349Y+003271
X+001349Y+003525
X+001349Y+003779
X+001349Y+002763
X+001349Y+002509
X+001349Y+002255
X+001603Y+002255
X+001603Y+002509
X+001603Y+002763
X+005658Y+002763
X+005658Y+002509
X+005658Y+002255
X+005912Y+002255
X+005912Y+002509
X+005912Y+002763
X+005912Y+003017
X+005658Y+003017
X+005658Y+003271
X+005658Y+003525
X+005658Y+003779
X+005912Y+003779
X+005912Y+003525
X+005912Y+003271
X+005912Y+004033
X+005658Y+004033
X+005658Y+004287
X+005658Y+004541
X+005912Y+004541
X+005912Y+004287
X+005096Y+008684
X+004842Y+008684
X+004842Y+008938
X+005096Y+008938
X+004588Y+008938
X+004588Y+008684
X+004334Y+008684
X+004080Y+008684
X+004080Y+008938
X+004334Y+008938
X+003826Y+008938
X+003826Y+008684
X+003572Y+008684
X+003318Y+008684
X+003318Y+008938
X+003572Y+008938
X+003064Y+008938
X+003064Y+008684
X+002810Y+008684
X+002556Y+008684
X+002556Y+008938
X+002810Y+008938
X+002302Y+008938
X+002302Y+008684
X+002048Y+008684
X+002048Y+008938
T00
M30
